<?xml version="1.0" encoding="utf-8"?>
<!-- Generator: Adobe Illustrator 19.2.0, SVG Export Plug-In . SVG Version: 6.00 Build 0)  -->
<svg version="1.1" id="Слой_1" xmlns="http://www.w3.org/2000/svg" xmlns:xlink="http://www.w3.org/1999/xlink" x="0px" y="0px"
	 viewBox="0 0 36 32" style="enable-background:new 0 0 36 32;" xml:space="preserve">
<style type="text/css">
	.st0{fill:none;stroke:#FFFFFF;stroke-miterlimit:10;}
	.st1{fill:#FFFFFF;stroke:#FFFFFF;stroke-miterlimit:10;}
</style>
<path class="st0" d="M33.5,31.5h-31c-1.1,0-2-0.9-2-2v-27c0-1.1,0.9-2,2-2h31c1.1,0,2,0.9,2,2v27C35.5,30.6,34.6,31.5,33.5,31.5z"/>
<g>
	<g>
		<path class="st1" d="M31,11.4H5c-0.6,0-1-0.4-1-1v0c0-0.6,0.4-1,1-1h26c0.6,0,1,0.4,1,1v0C32,11,31.6,11.4,31,11.4z"/>
	</g>
	<g>
		<path class="st1" d="M31,17H5c-0.6,0-1-0.4-1-1v0c0-0.6,0.4-1,1-1h26c0.6,0,1,0.4,1,1v0C32,16.6,31.6,17,31,17z"/>
	</g>
	<g>
		<path class="st1" d="M31,22.6H5c-0.6,0-1-0.4-1-1v0c0-0.6,0.4-1,1-1h26c0.6,0,1,0.4,1,1v0C32,22.2,31.6,22.6,31,22.6z"/>
	</g>
</g>
</svg>
