<?xml version="1.0" encoding="utf-8"?>
<!-- Generator: Adobe Illustrator 19.2.0, SVG Export Plug-In . SVG Version: 6.00 Build 0)  -->
<svg version="1.1" id="Слой_1" xmlns="http://www.w3.org/2000/svg" xmlns:xlink="http://www.w3.org/1999/xlink" x="0px" y="0px"
	 viewBox="0 0 124 48" style="enable-background:new 0 0 124 48;" xml:space="preserve">
<style type="text/css">
	.st0{fill:none;stroke:#FFFFFF;stroke-width:2;stroke-miterlimit:10;}
</style>
<path class="st0" d="M124,24c0,0-0.3,0-0.6,0c-1.9,0.3-6.9,1.6-6.8,7.9c0.2,7.9-9.9,6.2-9.9,6.2c1.9,5.4-6.3,5.7-6.3,5.7
	s0.2,0.6-17.4-0.7C65.4,41.9,62,48,62,48l0,0l0,0l0,0l0,0c0,0-3.4-6.1-21-4.8c-17.6,1.2-17.4,0.7-17.4,0.7s-8.1-0.3-6.3-5.7
	c0,0-10.1,1.7-9.9-6.2c0.1-6.3-5-7.6-6.8-7.9c-0.4,0-0.6,0-0.6,0c-0.1,0,0,0,0.3,0c-0.3,0-0.5,0-0.3,0c0,0,0.3,0,0.6,0
	c1.9-0.3,6.9-1.6,6.8-7.9c-0.2-7.9,9.9-6.2,9.9-6.2c-1.9-5.4,6.3-5.7,6.3-5.7S23.4,3.6,41,4.8C58.6,6.1,62,0,62,0l0,0l0,0l0,0l0,0
	c0,0,3.4,6.1,21,4.8c17.6-1.2,17.4-0.7,17.4-0.7s8.1,0.3,6.3,5.7c0,0,10.1-1.7,9.9,6.2c-0.1,6.3,5,7.6,6.8,7.9
	C123.7,24,123.9,24,124,24c0.1-0.1,0-0.1-0.3,0C123.9,24,124.1,24,124,24z"/>
</svg>
